<svg width="20" height="20" viewBox="0 0 20 20" fill="none" xmlns="http://www.w3.org/2000/svg">
<path d="M15.4652 9.16663H4.14682C3.25382 9.16663 2.52991 9.91282 2.52991 10.8333V16.6666C2.52991 17.5871 3.25382 18.3333 4.14682 18.3333H15.4652C16.3582 18.3333 17.0821 17.5871 17.0821 16.6666V10.8333C17.0821 9.91282 16.3582 9.16663 15.4652 9.16663Z" stroke="#F00" stroke-width="2" stroke-linecap="round" stroke-linejoin="round"/>
<path d="M6 9.5V6.16667C6 5.0616 6.42588 4.00179 7.18396 3.22039C7.94203 2.43899 8.97021 2 10.0423 2C11.1144 2 12.1425 2.43899 12.9006 3.22039C13.6587 4.00179 14.0846 5.0616 14.0846 6.16667V9.5" stroke="#F00" stroke-width="2" stroke-linecap="round" stroke-linejoin="round"/>
</svg>
