<svg width="196" height="105" viewBox="0 0 196 105" fill="none" xmlns="http://www.w3.org/2000/svg">
<g clip-path="url(#clip0_1_28)">
<g clip-path="url(#clip1_1_28)">
<path fill-rule="evenodd" clip-rule="evenodd" d="M-27.9911 84.6362C-28.0913 85.0711 -28.0523 85.5588 -27.9048 85.7195C-27.7566 85.8809 -26.3964 85.9731 -24.8767 85.9249L-22.1172 85.8375V84.9277V84.0178L-24.963 83.9313L-27.8087 83.8452L-27.9911 84.6362ZM0.426498 86.0489C0.34827 86.2709 0.31765 90.204 0.358295 94.7888L0.432625 103.125L6.00049 103.22C9.44895 103.278 12.126 103.183 13.0333 102.969C13.8387 102.78 14.8893 102.266 15.3679 101.828C15.8461 101.389 16.4085 100.585 16.6173 100.04C16.8261 99.4956 16.997 98.5612 16.997 97.9637C16.997 97.3662 16.8099 96.483 16.5811 96.0011C16.3523 95.5192 15.911 94.9308 15.6006 94.6939L15.036 94.2632L15.4781 93.8635C15.7211 93.6439 16.0998 93.0856 16.3194 92.6227C16.5391 92.1602 16.7158 91.3313 16.7125 90.7812C16.7092 90.2307 16.4681 89.2083 16.1766 88.5092C15.7977 87.5996 15.3044 87.0389 14.4428 86.5378L13.2387 85.8375L6.90388 85.7411C1.82264 85.664 0.540642 85.7247 0.426498 86.0489ZM20.1852 86.0692C20.1109 86.28 20.0836 90.204 20.1242 94.7888L20.1985 103.125L28.0632 103.206L35.9278 103.286V100.855V98.4241H31.0559H26.184V97.674V96.9237L30.2903 96.84L34.3966 96.756V94.4813V92.2066L30.2903 92.1226L26.184 92.0389V91.2886V90.5385H30.8869H35.5898L35.7588 90.0587C35.8518 89.7949 35.9278 88.919 35.9278 88.1122C35.9278 87.3055 35.8518 86.4296 35.7588 86.1657L35.5898 85.6859H27.9551C22.0582 85.6859 20.2896 85.7732 20.1852 86.0692ZM43.3227 86.6716C43.1181 87.2139 41.874 91.1084 40.5575 95.3266C38.7718 101.048 38.2565 103.035 38.5294 103.149C38.7304 103.233 40.0126 103.262 41.3784 103.213L43.862 103.125L44.4115 101.836L44.9611 100.547H47.635H50.309L50.8438 101.836L51.3786 103.125L53.9983 103.213C55.4392 103.261 56.7171 103.193 56.8379 103.061C56.959 102.929 55.8927 99.1229 54.4688 94.6017C53.0448 90.0806 51.7909 86.2251 51.6823 86.0338C51.549 85.799 50.2191 85.6859 47.5897 85.6859H43.6944L43.3227 86.6716ZM58.9506 85.8782C58.8437 85.9949 58.756 88.5677 58.756 91.5955C58.756 95.6356 58.8685 97.5136 59.1786 98.6515C59.4913 99.798 59.9256 100.513 60.8454 101.395C61.6616 102.178 62.6474 102.759 63.7123 103.084C64.6045 103.357 66.2036 103.579 67.2654 103.576C68.3272 103.575 69.8667 103.378 70.6869 103.141C71.5073 102.902 72.6634 102.358 73.2567 101.93C73.8497 101.503 74.6194 100.573 74.9669 99.8644L75.5988 98.5757V92.2066V85.8375H72.6757H69.7526L69.6134 91.7035L69.4742 97.5691L68.8169 98.1484C68.4555 98.4668 67.749 98.7274 67.247 98.7274C66.7451 98.7274 66.0385 98.4668 65.6772 98.1484L65.0199 97.5691L64.8807 91.7035L64.7415 85.8375L61.9433 85.7517C60.4047 85.7047 59.0578 85.7614 58.9506 85.8782ZM78.3624 86.089C78.2828 86.3155 78.2547 87.5117 78.3001 88.7473L78.3828 90.9935L81.0912 91.0802L83.7997 91.1669L83.8752 97.146L83.9506 103.125H86.8737H89.7969L89.8723 97.146L89.9478 91.1669L92.6562 91.0802L95.3647 90.9935V88.4155V85.8375L86.9361 85.7572L78.5077 85.6771L78.3624 86.089ZM97.7311 86.1235C97.7311 86.3643 99.0145 88.8553 100.583 91.6586L103.435 96.756L103.576 99.9405L103.717 103.125H106.64H109.563L109.642 100.168L109.722 97.2118L112.635 91.9346C114.237 89.0324 115.548 86.4344 115.548 86.1614V85.6653L112.561 85.7514L109.573 85.8375L108.176 88.4798C107.407 89.9329 106.716 91.1251 106.64 91.1293C106.563 91.1333 105.948 90.0126 105.273 88.6387C104.598 87.2648 103.909 86.0404 103.742 85.9179C103.575 85.7954 102.154 85.6932 100.585 85.6904C98.2815 85.6868 97.7311 85.7702 97.7311 86.1235ZM118.744 86.048C118.665 86.2706 118.635 90.204 118.675 94.7888L118.75 103.125H121.812H124.874L124.955 100.471L125.035 97.8175H125.87H126.704L127.877 100.471L129.05 103.125L132.089 103.212C133.76 103.259 135.246 103.169 135.392 103.01C135.559 102.828 135.132 101.666 134.234 99.8556L132.811 96.9895L133.773 95.8783C134.312 95.2562 134.816 94.2975 134.919 93.7003C135.02 93.1135 135.047 91.8991 134.978 91.0014C134.889 89.8334 134.638 89.0603 134.094 88.283C133.675 87.6855 132.808 86.8909 132.166 86.5172L130.999 85.8375L124.943 85.7405C120.088 85.6628 118.858 85.7238 118.744 86.048ZM142.086 86.0568C141.96 86.2697 140.699 90.1242 139.285 94.6217C137.871 99.1195 136.817 102.912 136.944 103.05C137.07 103.188 138.339 103.261 139.764 103.213C141.712 103.147 142.413 103.012 142.593 102.67C142.724 102.42 142.953 101.84 143.103 101.381L143.374 100.547H146.102H148.831L149.38 101.836L149.93 103.125L152.644 103.212L155.359 103.299L155.341 102.605C155.332 102.224 154.173 98.2952 152.766 93.8747L150.208 85.8375L146.262 85.7535C143.297 85.6904 142.259 85.7656 142.086 86.0568ZM157.755 86.1657C157.662 86.4296 157.588 90.2167 157.59 94.582C157.592 98.947 157.697 102.694 157.822 102.91C157.988 103.195 158.762 103.277 160.671 103.213L163.293 103.125L163.432 99.7334L163.571 96.3414L166.08 99.7334L168.589 103.125H171.091H173.593V94.4813V85.8375L170.887 85.7508L168.18 85.6641L168.032 86.3574C167.951 86.7386 167.854 88.4643 167.816 90.1922L167.747 93.3337L165.398 89.7372C164.106 87.7592 162.916 86.0404 162.753 85.9179C162.591 85.7954 161.438 85.6932 160.191 85.6904C158.378 85.6868 157.89 85.782 157.755 86.1657ZM177.76 86.0586C177.683 86.2755 177.654 90.204 177.695 94.7888L177.769 103.125H180.692H183.615L183.755 100.437L183.894 97.7484L185.943 100.513L187.992 103.277H191.425C193.486 103.277 194.928 103.151 195.035 102.963C195.133 102.791 193.778 100.7 192.023 98.3161L188.833 93.9821L191.583 90.2804C193.096 88.2444 194.334 86.3777 194.334 86.1323V85.6859H191.008H187.682L185.788 88.3318L183.894 90.9774L183.755 88.4076L183.615 85.8375L180.757 85.7511C178.61 85.6862 177.864 85.7626 177.76 86.0586ZM-28.0128 87.9912C-28.111 88.2699 -28.0637 88.7182 -27.9078 88.9875L-27.6244 89.477H-24.8708H-22.1172V88.5671V87.6573L-24.9758 87.5708L-27.8343 87.4844L-28.0128 87.9912ZM-12.4606 88.4913L-12.3735 89.477H-9.58953H-6.8056L-6.71847 88.4913L-6.63104 87.5056H-9.58953H-12.548L-12.4606 88.4913ZM6.41808 91.1451V92.3871L8.12909 92.297C9.3941 92.2303 9.91999 92.0683 10.146 91.6759C10.3682 91.2901 10.3682 91.0001 10.146 90.6144C9.91999 90.2219 9.3941 90.0599 8.12909 89.9932L6.41808 89.9031V91.1451ZM125.014 91.7517V92.9649H126.674C127.973 92.9649 128.39 92.8493 128.59 92.4341C128.735 92.1317 128.744 91.6094 128.609 91.2209L128.372 90.5385H126.693H125.014V91.7517ZM-27.9919 91.2682C-28.0787 91.5148 -28.106 91.9631 -28.0529 92.2649L-27.956 92.8132H-25.0365H-22.1172V91.9033V90.9935L-24.9758 90.907L-27.8343 90.8206L-27.9919 91.2682ZM-12.3178 91.0338C-12.425 91.1506 -12.5127 91.6328 -12.5127 92.1056V92.9649H-9.572H-6.63104L-6.71847 91.9792L-6.8056 90.9935L-9.46425 90.9073C-10.9264 90.86 -12.2103 90.917 -12.3178 91.0338ZM46.7612 93.4201L46.0412 95.6945H47.6412H49.2414L48.5006 93.4213C48.093 92.1711 47.6969 91.1475 47.6203 91.1469C47.5437 91.146 47.157 92.169 46.7612 93.4201ZM145.241 93.4198L144.539 95.6945H146.052C146.883 95.6945 147.563 95.6017 147.563 95.4885C147.563 95.3751 147.288 94.3515 146.952 93.2139C146.616 92.0759 146.251 91.1451 146.142 91.1451C146.033 91.1451 145.628 92.1687 145.241 93.4198ZM-35.4244 94.37C-35.5316 94.4868 -35.6193 94.969 -35.6193 95.4418V96.301H-32.6786H-29.7377L-29.8251 95.3154L-29.9122 94.3297L-32.5709 94.2435C-34.033 94.1962 -35.317 94.2532 -35.4244 94.37ZM-27.9911 94.9481C-28.0913 95.383 -28.0523 95.8707 -27.9048 96.0314C-27.7566 96.1928 -26.3964 96.285 -24.8767 96.2367L-22.1172 96.1494V95.2395V94.3297L-24.963 94.2432L-27.8087 94.1571L-27.9911 94.9481ZM-12.3178 94.37C-12.425 94.4868 -12.5127 94.969 -12.5127 95.4418V96.301H-9.572H-6.63104L-6.71847 95.3154L-6.8056 94.3297L-9.46425 94.2435C-10.9264 94.1962 -12.2103 94.2532 -12.3178 94.37ZM6.41808 97.8175V99.0307H8.17196C9.16499 99.0307 10.0709 98.8726 10.2599 98.6667C10.4436 98.4665 10.594 98.0034 10.594 97.6377C10.594 97.2719 10.3958 96.8897 10.1536 96.7884C9.91136 96.6871 8.97178 96.6043 8.06561 96.6043H6.41808V97.8175ZM-35.5672 98.8032L-35.4801 99.7889H-32.6962H-29.9122L-29.8251 98.8032L-29.7377 97.8175H-32.6962H-35.6547L-35.5672 98.8032ZM-27.9919 98.2439C-28.0787 98.4905 -28.106 98.9388 -28.0529 99.2405L-27.956 99.7889H-25.0365H-22.1172V98.879V97.9691L-24.9758 97.8827L-27.8343 97.7963L-27.9919 98.2439ZM-20.2556 98.8032L-20.1685 99.7889H-17.3845H-14.6006L-14.5135 98.8032L-14.4261 97.8175H-17.3845H-20.343L-20.2556 98.8032ZM-12.4606 98.8032L-12.3735 99.7889H-9.58953H-6.8056L-6.71847 98.8032L-6.63104 97.8175H-9.58953H-12.548L-12.4606 98.8032ZM-35.4244 101.346C-35.5316 101.462 -35.6193 101.945 -35.6193 102.418V103.277H-32.6786H-29.7377L-29.8251 102.291L-29.9122 101.305L-32.5709 101.219C-34.033 101.172 -35.317 101.229 -35.4244 101.346ZM-27.9911 101.924C-28.0913 102.359 -28.0523 102.846 -27.9048 103.007C-27.7566 103.168 -26.3964 103.261 -24.8767 103.212L-22.1172 103.125V102.215V101.305L-24.963 101.219L-27.8087 101.133L-27.9911 101.924ZM-20.1128 101.346C-20.22 101.462 -20.3077 101.945 -20.3077 102.418V103.277H-17.367H-14.4261L-14.5135 102.291L-14.6006 101.305L-17.2593 101.219C-18.7214 101.172 -20.0053 101.229 -20.1128 101.346ZM-12.3178 101.346C-12.425 101.462 -12.5127 101.945 -12.5127 102.418V103.277H-9.572H-6.63104L-6.71847 102.291L-6.8056 101.305L-9.46425 101.219C-10.9264 101.172 -12.2103 101.229 -12.3178 101.346ZM-35.5672 105.779L-35.4801 106.765H-32.6962H-29.9122L-29.8251 105.779L-29.7377 104.793H-32.6962H-35.6547L-35.5672 105.779ZM-27.9919 105.22C-28.0787 105.466 -28.106 105.914 -28.0529 106.216L-27.956 106.765H-25.0365H-22.1172V105.855V104.945L-24.9758 104.858L-27.8343 104.772L-27.9919 105.22ZM-20.2556 105.779L-20.1685 106.765H-17.3845H-14.6006L-14.5135 105.779L-14.4261 104.793H-17.3845H-20.343L-20.2556 105.779ZM-12.4606 105.779L-12.3735 106.765H-9.58953H-6.8056L-6.71847 105.779L-6.63104 104.793H-9.58953H-12.548L-12.4606 105.779Z" fill="#FF3E9B"/>
<path fill-rule="evenodd" clip-rule="evenodd" d="M-27.9911 84.6362C-28.0913 85.0711 -28.0523 85.5588 -27.9048 85.7195C-27.7566 85.8809 -26.3964 85.9731 -24.8767 85.9249L-22.1172 85.8375V84.9277V84.0178L-24.963 83.9313L-27.8087 83.8452L-27.9911 84.6362ZM0.426498 86.0489C0.34827 86.2709 0.31765 90.204 0.358295 94.7888L0.432625 103.125L6.00049 103.22C9.44895 103.278 12.126 103.183 13.0333 102.969C13.8387 102.78 14.8893 102.266 15.3679 101.828C15.8461 101.389 16.4085 100.585 16.6173 100.04C16.8261 99.4956 16.997 98.5612 16.997 97.9637C16.997 97.3662 16.8099 96.483 16.5811 96.0011C16.3523 95.5192 15.911 94.9308 15.6006 94.6939L15.036 94.2632L15.4781 93.8635C15.7211 93.6439 16.0998 93.0856 16.3194 92.6227C16.5391 92.1602 16.7158 91.3313 16.7125 90.7812C16.7092 90.2307 16.4681 89.2083 16.1766 88.5092C15.7977 87.5996 15.3044 87.0389 14.4428 86.5378L13.2387 85.8375L6.90388 85.7411C1.82264 85.664 0.540642 85.7247 0.426498 86.0489ZM20.1852 86.0692C20.1109 86.28 20.0836 90.204 20.1242 94.7888L20.1985 103.125L28.0632 103.206L35.9278 103.286V100.855V98.4241H31.0559H26.184V97.674V96.9237L30.2903 96.84L34.3966 96.756V94.4813V92.2066L30.2903 92.1226L26.184 92.0389V91.2886V90.5385H30.8869H35.5898L35.7588 90.0587C35.8518 89.7949 35.9278 88.919 35.9278 88.1122C35.9278 87.3055 35.8518 86.4296 35.7588 86.1657L35.5898 85.6859H27.9551C22.0582 85.6859 20.2896 85.7732 20.1852 86.0692ZM43.3227 86.6716C43.1181 87.2139 41.874 91.1084 40.5575 95.3266C38.7718 101.048 38.2565 103.035 38.5294 103.149C38.7304 103.233 40.0126 103.262 41.3784 103.213L43.862 103.125L44.4115 101.836L44.9611 100.547H47.635H50.309L50.8438 101.836L51.3786 103.125L53.9983 103.213C55.4392 103.261 56.7171 103.193 56.8379 103.061C56.959 102.929 55.8927 99.1229 54.4688 94.6017C53.0448 90.0806 51.7909 86.2251 51.6823 86.0338C51.549 85.799 50.2191 85.6859 47.5897 85.6859H43.6944L43.3227 86.6716ZM58.9506 85.8782C58.8437 85.9949 58.756 88.5677 58.756 91.5955C58.756 95.6356 58.8685 97.5136 59.1786 98.6515C59.4913 99.798 59.9256 100.513 60.8454 101.395C61.6616 102.178 62.6474 102.759 63.7123 103.084C64.6045 103.357 66.2036 103.579 67.2654 103.576C68.3272 103.575 69.8667 103.378 70.6869 103.141C71.5073 102.902 72.6634 102.358 73.2567 101.93C73.8497 101.503 74.6194 100.573 74.9669 99.8644L75.5988 98.5757V92.2066V85.8375H72.6757H69.7526L69.6134 91.7035L69.4742 97.5691L68.8169 98.1484C68.4555 98.4668 67.749 98.7274 67.247 98.7274C66.7451 98.7274 66.0385 98.4668 65.6772 98.1484L65.0199 97.5691L64.8807 91.7035L64.7415 85.8375L61.9433 85.7517C60.4047 85.7047 59.0578 85.7614 58.9506 85.8782ZM78.3624 86.089C78.2828 86.3155 78.2547 87.5117 78.3001 88.7473L78.3828 90.9935L81.0912 91.0802L83.7997 91.1669L83.8752 97.146L83.9506 103.125H86.8737H89.7969L89.8723 97.146L89.9478 91.1669L92.6562 91.0802L95.3647 90.9935V88.4155V85.8375L86.9361 85.7572L78.5077 85.6771L78.3624 86.089ZM97.7311 86.1235C97.7311 86.3643 99.0145 88.8553 100.583 91.6586L103.435 96.756L103.576 99.9405L103.717 103.125H106.64H109.563L109.642 100.168L109.722 97.2118L112.635 91.9346C114.237 89.0324 115.548 86.4344 115.548 86.1614V85.6653L112.561 85.7514L109.573 85.8375L108.176 88.4798C107.407 89.9329 106.716 91.1251 106.64 91.1293C106.563 91.1333 105.948 90.0126 105.273 88.6387C104.598 87.2648 103.909 86.0404 103.742 85.9179C103.575 85.7954 102.154 85.6932 100.585 85.6904C98.2815 85.6868 97.7311 85.7702 97.7311 86.1235ZM118.744 86.048C118.665 86.2706 118.635 90.204 118.675 94.7888L118.75 103.125H121.812H124.874L124.955 100.471L125.035 97.8175H125.87H126.704L127.877 100.471L129.05 103.125L132.089 103.212C133.76 103.259 135.246 103.169 135.392 103.01C135.559 102.828 135.132 101.666 134.234 99.8556L132.811 96.9895L133.773 95.8783C134.312 95.2562 134.816 94.2975 134.919 93.7003C135.02 93.1135 135.047 91.8991 134.978 91.0014C134.889 89.8334 134.638 89.0603 134.094 88.283C133.675 87.6855 132.808 86.8909 132.166 86.5172L130.999 85.8375L124.943 85.7405C120.088 85.6628 118.858 85.7238 118.744 86.048ZM142.086 86.0568C141.96 86.2697 140.699 90.1242 139.285 94.6217C137.871 99.1195 136.817 102.912 136.944 103.05C137.07 103.188 138.339 103.261 139.764 103.213C141.712 103.147 142.413 103.012 142.593 102.67C142.724 102.42 142.953 101.84 143.103 101.381L143.374 100.547H146.102H148.831L149.38 101.836L149.93 103.125L152.644 103.212L155.359 103.299L155.341 102.605C155.332 102.224 154.173 98.2952 152.766 93.8747L150.208 85.8375L146.262 85.7535C143.297 85.6904 142.259 85.7656 142.086 86.0568ZM157.755 86.1657C157.662 86.4296 157.588 90.2167 157.59 94.582C157.592 98.947 157.697 102.694 157.822 102.91C157.988 103.195 158.762 103.277 160.671 103.213L163.293 103.125L163.432 99.7334L163.571 96.3414L166.08 99.7334L168.589 103.125H171.091H173.593V94.4813V85.8375L170.887 85.7508L168.18 85.6641L168.032 86.3574C167.951 86.7386 167.854 88.4643 167.816 90.1922L167.747 93.3337L165.398 89.7372C164.106 87.7592 162.916 86.0404 162.753 85.9179C162.591 85.7954 161.438 85.6932 160.191 85.6904C158.378 85.6868 157.89 85.782 157.755 86.1657ZM177.76 86.0586C177.683 86.2755 177.654 90.204 177.695 94.7888L177.769 103.125H180.692H183.615L183.755 100.437L183.894 97.7484L185.943 100.513L187.992 103.277H191.425C193.486 103.277 194.928 103.151 195.035 102.963C195.133 102.791 193.778 100.7 192.023 98.3161L188.833 93.9821L191.583 90.2804C193.096 88.2444 194.334 86.3777 194.334 86.1323V85.6859H191.008H187.682L185.788 88.3318L183.894 90.9774L183.755 88.4076L183.615 85.8375L180.757 85.7511C178.61 85.6862 177.864 85.7626 177.76 86.0586ZM-28.0128 87.9912C-28.111 88.2699 -28.0637 88.7182 -27.9078 88.9875L-27.6244 89.477H-24.8708H-22.1172V88.5671V87.6573L-24.9758 87.5708L-27.8343 87.4844L-28.0128 87.9912ZM-12.4606 88.4913L-12.3735 89.477H-9.58953H-6.8056L-6.71847 88.4913L-6.63104 87.5056H-9.58953H-12.548L-12.4606 88.4913ZM6.41808 91.1451V92.3871L8.12909 92.297C9.3941 92.2303 9.91999 92.0683 10.146 91.6759C10.3682 91.2901 10.3682 91.0001 10.146 90.6144C9.91999 90.2219 9.3941 90.0599 8.12909 89.9932L6.41808 89.9031V91.1451ZM125.014 91.7517V92.9649H126.674C127.973 92.9649 128.39 92.8493 128.59 92.4341C128.735 92.1317 128.744 91.6094 128.609 91.2209L128.372 90.5385H126.693H125.014V91.7517ZM-27.9919 91.2682C-28.0787 91.5148 -28.106 91.9631 -28.0529 92.2649L-27.956 92.8132H-25.0365H-22.1172V91.9033V90.9935L-24.9758 90.907L-27.8343 90.8206L-27.9919 91.2682ZM-12.3178 91.0338C-12.425 91.1506 -12.5127 91.6328 -12.5127 92.1056V92.9649H-9.572H-6.63104L-6.71847 91.9792L-6.8056 90.9935L-9.46425 90.9073C-10.9264 90.86 -12.2103 90.917 -12.3178 91.0338ZM46.7612 93.4201L46.0412 95.6945H47.6412H49.2414L48.5006 93.4213C48.093 92.1711 47.6969 91.1475 47.6203 91.1469C47.5437 91.146 47.157 92.169 46.7612 93.4201ZM145.241 93.4198L144.539 95.6945H146.052C146.883 95.6945 147.563 95.6017 147.563 95.4885C147.563 95.3751 147.288 94.3515 146.952 93.2139C146.616 92.0759 146.251 91.1451 146.142 91.1451C146.033 91.1451 145.628 92.1687 145.241 93.4198ZM-35.4244 94.37C-35.5316 94.4868 -35.6193 94.969 -35.6193 95.4418V96.301H-32.6786H-29.7377L-29.8251 95.3154L-29.9122 94.3297L-32.5709 94.2435C-34.033 94.1962 -35.317 94.2532 -35.4244 94.37ZM-27.9911 94.9481C-28.0913 95.383 -28.0523 95.8707 -27.9048 96.0314C-27.7566 96.1928 -26.3964 96.285 -24.8767 96.2367L-22.1172 96.1494V95.2395V94.3297L-24.963 94.2432L-27.8087 94.1571L-27.9911 94.9481ZM-12.3178 94.37C-12.425 94.4868 -12.5127 94.969 -12.5127 95.4418V96.301H-9.572H-6.63104L-6.71847 95.3154L-6.8056 94.3297L-9.46425 94.2435C-10.9264 94.1962 -12.2103 94.2532 -12.3178 94.37ZM6.41808 97.8175V99.0307H8.17196C9.16499 99.0307 10.0709 98.8726 10.2599 98.6667C10.4436 98.4665 10.594 98.0034 10.594 97.6377C10.594 97.2719 10.3958 96.8897 10.1536 96.7884C9.91136 96.6871 8.97178 96.6043 8.06561 96.6043H6.41808V97.8175ZM-35.5672 98.8032L-35.4801 99.7889H-32.6962H-29.9122L-29.8251 98.8032L-29.7377 97.8175H-32.6962H-35.6547L-35.5672 98.8032ZM-27.9919 98.2439C-28.0787 98.4905 -28.106 98.9388 -28.0529 99.2405L-27.956 99.7889H-25.0365H-22.1172V98.879V97.9691L-24.9758 97.8827L-27.8343 97.7963L-27.9919 98.2439ZM-20.2556 98.8032L-20.1685 99.7889H-17.3845H-14.6006L-14.5135 98.8032L-14.4261 97.8175H-17.3845H-20.343L-20.2556 98.8032ZM-12.4606 98.8032L-12.3735 99.7889H-9.58953H-6.8056L-6.71847 98.8032L-6.63104 97.8175H-9.58953H-12.548L-12.4606 98.8032ZM-35.4244 101.346C-35.5316 101.462 -35.6193 101.945 -35.6193 102.418V103.277H-32.6786H-29.7377L-29.8251 102.291L-29.9122 101.305L-32.5709 101.219C-34.033 101.172 -35.317 101.229 -35.4244 101.346ZM-27.9911 101.924C-28.0913 102.359 -28.0523 102.846 -27.9048 103.007C-27.7566 103.168 -26.3964 103.261 -24.8767 103.212L-22.1172 103.125V102.215V101.305L-24.963 101.219L-27.8087 101.133L-27.9911 101.924ZM-20.1128 101.346C-20.22 101.462 -20.3077 101.945 -20.3077 102.418V103.277H-17.367H-14.4261L-14.5135 102.291L-14.6006 101.305L-17.2593 101.219C-18.7214 101.172 -20.0053 101.229 -20.1128 101.346ZM-12.3178 101.346C-12.425 101.462 -12.5127 101.945 -12.5127 102.418V103.277H-9.572H-6.63104L-6.71847 102.291L-6.8056 101.305L-9.46425 101.219C-10.9264 101.172 -12.2103 101.229 -12.3178 101.346ZM-35.5672 105.779L-35.4801 106.765H-32.6962H-29.9122L-29.8251 105.779L-29.7377 104.793H-32.6962H-35.6547L-35.5672 105.779ZM-27.9919 105.22C-28.0787 105.466 -28.106 105.914 -28.0529 106.216L-27.956 106.765H-25.0365H-22.1172V105.855V104.945L-24.9758 104.858L-27.8343 104.772L-27.9919 105.22ZM-20.2556 105.779L-20.1685 106.765H-17.3845H-14.6006L-14.5135 105.779L-14.4261 104.793H-17.3845H-20.343L-20.2556 105.779ZM-12.4606 105.779L-12.3735 106.765H-9.58953H-6.8056L-6.71847 105.779L-6.63104 104.793H-9.58953H-12.548L-12.4606 105.779Z" fill="#FF3E9B"/>
</g>
<g clip-path="url(#clip2_1_28)">
<path fill-rule="evenodd" clip-rule="evenodd" d="M76.551 3.2331C76.2264 4.66211 76.3527 6.26452 76.8305 6.79268C77.3102 7.32283 81.7158 7.62577 86.6381 7.46733L95.5755 7.18033V4.19076V1.20118L86.3586 0.917165L77.1416 0.634155L76.551 3.2331ZM168.592 7.8749C168.338 8.60436 168.239 21.5273 168.371 36.5918L168.612 63.9823L186.645 64.2932C197.814 64.4855 206.485 64.1726 209.423 63.4711C212.032 62.8492 215.435 61.1601 216.985 59.7191C218.534 58.2782 220.355 55.6354 221.031 53.8466C221.708 52.0569 222.261 48.9866 222.261 47.0234C222.261 45.0603 221.655 42.1584 220.914 40.5749C220.173 38.9914 218.744 37.0582 217.739 36.2799L215.91 34.8648L217.342 33.5514C218.129 32.8299 219.355 30.9953 220.067 29.4746C220.778 27.9549 221.351 25.2314 221.34 23.4237C221.329 21.615 220.548 18.2557 219.604 15.9587C218.377 12.9701 216.779 11.1276 213.988 9.4813L210.089 7.18033L189.571 6.86344C173.114 6.61033 168.961 6.80962 168.592 7.8749ZM232.587 7.94169C232.347 8.63427 232.258 21.5273 232.39 36.5918L232.631 63.9823L258.103 64.2474L283.576 64.5115V56.5243V48.5361H267.796H252.017V46.0717V43.6063L265.317 43.3313L278.616 43.0553V35.5813V28.1074L265.317 27.8313L252.017 27.5563V25.0909V22.6265H267.249H282.481L283.028 21.05C283.329 20.183 283.576 17.305 283.576 14.6543C283.576 12.0035 283.329 9.12555 283.028 8.25857L282.481 6.68207H257.753C238.654 6.68207 232.926 6.96908 232.587 7.94169ZM307.527 9.92078C306.864 11.7026 302.835 24.4989 298.57 38.3586C292.787 57.1571 291.118 63.6863 292.002 64.061C292.653 64.3371 296.806 64.4327 301.229 64.2723L309.273 63.9823L311.053 59.7471L312.833 55.5118H321.494H330.154L331.887 59.7471L333.619 63.9823L342.103 64.2713C346.771 64.4297 350.909 64.2055 351.301 63.773C351.693 63.3395 348.239 50.8321 343.627 35.9769C339.015 21.1217 334.954 8.4539 334.602 7.82509C334.171 7.05378 329.863 6.68207 321.347 6.68207H308.731L307.527 9.92078ZM358.143 7.31387C357.797 7.69753 357.513 16.151 357.513 26.0994C357.513 39.3741 357.877 45.5446 358.882 49.2835C359.895 53.0504 361.301 55.3992 364.28 58.2981C366.924 60.8691 370.117 62.7785 373.566 63.8478C376.456 64.7436 381.635 65.4721 385.074 65.4651C388.513 65.4591 393.499 64.8144 396.156 64.0331C398.813 63.2508 402.557 61.4621 404.479 60.057C406.399 58.6519 408.893 55.5975 410.018 53.2686L412.065 49.0344V28.1074V7.18033H402.597H393.129L392.679 26.4541L392.228 45.7269L390.099 47.6303C388.929 48.6767 386.64 49.5327 385.014 49.5327C383.389 49.5327 381.1 48.6767 379.93 47.6303L377.801 45.7269L377.35 26.4541L376.899 7.18033L367.836 6.89833C362.853 6.74386 358.491 6.93021 358.143 7.31387ZM421.016 8.00646C420.758 8.75087 420.667 12.6811 420.814 16.741L421.082 24.1213L429.854 24.4063L438.626 24.6913L438.871 44.3368L439.115 63.9823H448.583H458.05L458.295 44.3368L458.539 24.6913L467.311 24.4063L476.084 24.1213V15.6508V7.18033L448.785 6.91624L421.486 6.65318L421.016 8.00646ZM483.748 8.12005C483.748 8.91129 487.905 17.0958 492.985 26.3066L502.222 43.0553L502.678 53.5188L503.134 63.9823H512.602H522.07L522.327 54.2672L522.585 44.553L532.02 27.2135C537.21 17.6777 541.456 9.14149 541.456 8.24461V6.61431L531.779 6.89732L522.102 7.18033L517.577 15.8621C515.089 20.6364 512.85 24.5538 512.602 24.5677C512.354 24.5807 510.363 20.8985 508.176 16.3842C505.991 11.87 503.759 7.84702 503.217 7.44443C502.676 7.04183 498.074 6.706 492.99 6.69703C485.531 6.68507 483.748 6.9591 483.748 8.12005ZM551.806 7.87192C551.552 8.60337 551.453 21.5273 551.584 36.5918L551.825 63.9823H561.743H571.662L571.922 55.2627L572.183 46.5431H574.885H577.588L581.387 55.2627L585.187 63.9823L595.028 64.2673C600.441 64.4238 605.255 64.1258 605.726 63.6046C606.267 63.0067 604.885 59.188 601.975 53.2397L597.368 43.8226L600.484 40.1713C602.228 38.1274 603.862 34.9774 604.194 33.0152C604.522 31.087 604.608 27.0969 604.387 24.1472C604.099 20.3096 603.284 17.7694 601.522 15.2153C600.167 13.2522 597.358 10.6413 595.279 9.41354L591.499 7.18033L571.883 6.86144C556.159 6.60633 552.176 6.80664 551.806 7.87192ZM627.409 7.90081C627 8.60037 622.917 21.2652 618.335 36.0427C613.755 50.8212 610.343 63.2837 610.752 63.7361C611.162 64.1886 615.272 64.4297 619.887 64.2713C626.197 64.0541 628.468 63.6116 629.049 62.4875C629.474 61.6654 630.217 59.759 630.7 58.2523L631.578 55.5118H640.416H649.253L651.033 59.7471L652.813 63.9823L661.604 64.2673L670.396 64.5523L670.34 62.2743C670.31 61.0216 666.556 48.1126 661.999 33.5883L653.715 7.18033L640.934 6.90429C631.33 6.69701 627.968 6.94415 627.409 7.90081ZM678.156 8.25857C677.855 9.12555 677.615 21.5692 677.623 35.9122C677.631 50.2542 677.969 62.5672 678.375 63.2748C678.912 64.2105 681.418 64.4816 687.603 64.2713L696.094 63.9823L696.544 52.8381L696.995 41.693L705.121 52.8381L713.247 63.9823H721.351H729.456V35.5813V7.18033L720.69 6.89532L711.923 6.61033L711.445 8.88837C711.181 10.141 710.866 15.8112 710.743 21.4884L710.52 31.8105L702.912 19.9937C698.727 13.4943 694.873 7.84702 694.346 7.44443C693.82 7.04183 690.085 6.706 686.046 6.69703C680.174 6.68507 678.594 6.99797 678.156 8.25857ZM742.95 7.9068C742.702 8.61932 742.608 21.5273 742.74 36.5918L742.981 63.9823H752.448H761.916L762.367 55.1491L762.818 46.3159L769.454 55.3982L776.09 64.4806H787.209C793.886 64.4806 798.558 64.069 798.903 63.4512C799.22 62.8851 794.83 56.0131 789.147 48.1814L778.815 33.941L787.723 21.7784C792.622 15.0887 796.631 8.95513 796.631 8.14894V6.68207H785.859H775.089L768.953 15.3758L762.818 24.0684L762.367 15.6249L761.916 7.18033L752.658 6.89632C745.706 6.68306 743.287 6.93419 742.95 7.9068ZM76.4807 14.2567C76.1624 15.1725 76.3157 16.6453 76.8206 17.5302L77.7385 19.1386H86.657H95.5755V16.1491V13.1595L86.3171 12.8755L77.0587 12.5915L76.4807 14.2567ZM126.852 15.8999L127.134 19.1386H136.151H145.168L145.45 15.8999L145.733 12.6612H136.151H126.569L126.852 15.8999ZM187.998 24.6195V28.7003L193.539 28.4043C197.637 28.1851 199.34 27.653 200.072 26.3634C200.792 25.0959 200.792 24.1432 200.072 22.8756C199.34 21.5861 197.637 21.054 193.539 20.8347L187.998 20.5388V24.6195ZM572.113 26.6126V30.5987H577.491C581.698 30.5987 583.049 30.219 583.697 28.8548C584.167 27.8612 584.193 26.1452 583.757 24.8687L582.991 22.6265H577.552H572.113V26.6126ZM76.5483 25.0241C76.267 25.8343 76.1786 27.3071 76.3509 28.2987L76.6646 30.1004H86.1205H95.5755V27.1108V24.1213L86.3171 23.8373L77.0587 23.5532L76.5483 25.0241ZM127.315 24.2538C126.967 24.6375 126.683 26.2219 126.683 27.7755V30.5987H136.208H145.733L145.45 27.36L145.168 24.1213L136.557 23.8383C131.821 23.6828 127.663 23.8701 127.315 24.2538ZM318.663 32.0945L316.332 39.5674H321.514H326.697L324.297 32.0985C322.977 27.9908 321.694 24.6275 321.446 24.6255C321.198 24.6225 319.946 27.9838 318.663 32.0945ZM637.628 32.0935L635.354 39.5674H640.252C642.945 39.5674 645.149 39.2625 645.149 38.8908C645.149 38.5181 644.257 35.1548 643.168 31.4168C642.078 27.6779 640.898 24.6195 640.545 24.6195C640.19 24.6195 638.878 27.9828 637.628 32.0935ZM52.4753 35.2156C52.1282 35.5992 51.8441 37.1837 51.8441 38.7373V41.5605H61.3686H70.8939L70.6108 38.3218L70.3285 35.083L61.7175 34.8C56.9819 34.6446 52.8233 34.8319 52.4753 35.2156ZM76.551 37.115C76.2264 38.544 76.3527 40.1464 76.8305 40.6745C77.3102 41.2047 81.7158 41.5076 86.6381 41.3492L95.5755 41.0622V38.0726V35.083L86.3586 34.799L77.1416 34.516L76.551 37.115ZM127.315 35.2156C126.967 35.5992 126.683 37.1837 126.683 38.7373V41.5605H136.208H145.733L145.45 38.3218L145.168 35.083L136.557 34.8C131.821 34.6446 127.663 34.8319 127.315 35.2156ZM187.998 46.5431V50.5292H193.678C196.894 50.5292 199.829 50.01 200.441 49.3334C201.036 48.6756 201.523 47.154 201.523 45.9522C201.523 44.7504 200.881 43.4947 200.096 43.1619C199.312 42.829 196.269 42.557 193.334 42.557H187.998V46.5431ZM52.0127 49.7818L52.295 53.0205H61.3118H70.3285L70.6108 49.7818L70.8939 46.5431H61.3118H51.7296L52.0127 49.7818ZM76.5483 47.9442C76.267 48.7544 76.1786 50.2272 76.3509 51.2188L76.6646 53.0205H86.1205H95.5755V50.0309V47.0414L86.3171 46.7573L77.0587 46.4733L76.5483 47.9442ZM101.605 49.7818L101.887 53.0205H110.904H119.921L120.203 49.7818L120.486 46.5431H110.904H101.322L101.605 49.7818ZM126.852 49.7818L127.134 53.0205H136.151H145.168L145.45 49.7818L145.733 46.5431H136.151H126.569L126.852 49.7818ZM52.4753 58.1357C52.1282 58.5193 51.8441 60.1038 51.8441 61.6574V64.4806H61.3686H70.8939L70.6108 61.2418L70.3285 58.0031L61.7175 57.7201C56.9819 57.5647 52.8233 57.752 52.4753 58.1357ZM76.551 60.0351C76.2264 61.4641 76.3527 63.0665 76.8305 63.5946C77.3102 64.1248 81.7158 64.4277 86.6381 64.2693L95.5755 63.9823V60.9927V58.0031L86.3586 57.7191L77.1416 57.4361L76.551 60.0351ZM102.068 58.1357C101.72 58.5193 101.436 60.1038 101.436 61.6574V64.4806H110.961H120.486L120.203 61.2418L119.921 58.0031L111.31 57.7201C106.574 57.5647 102.416 57.752 102.068 58.1357ZM127.315 58.1357C126.967 58.5193 126.683 60.1038 126.683 61.6574V64.4806H136.208H145.733L145.45 61.2418L145.168 58.0031L136.557 57.7201C131.821 57.5647 127.663 57.752 127.315 58.1357ZM52.0127 72.7019L52.295 75.9406H61.3118H70.3285L70.6108 72.7019L70.8939 69.4632H61.3118H51.7296L52.0127 72.7019ZM76.5483 70.8643C76.267 71.6745 76.1786 73.1473 76.3509 74.1389L76.6646 75.9406H86.1205H95.5755V72.951V69.9614L86.3171 69.6774L77.0587 69.3934L76.5483 70.8643ZM101.605 72.7019L101.887 75.9406H110.904H119.921L120.203 72.7019L120.486 69.4632H110.904H101.322L101.605 72.7019ZM126.852 72.7019L127.134 75.9406H136.151H145.168L145.45 72.7019L145.733 69.4632H136.151H126.569L126.852 72.7019Z" fill="#FF3E9B"/>
<path fill-rule="evenodd" clip-rule="evenodd" d="M76.551 3.2331C76.2264 4.66211 76.3527 6.26452 76.8305 6.79268C77.3102 7.32283 81.7158 7.62577 86.6381 7.46733L95.5755 7.18033V4.19076V1.20118L86.3586 0.917165L77.1416 0.634155L76.551 3.2331ZM168.592 7.8749C168.338 8.60436 168.239 21.5273 168.371 36.5918L168.612 63.9823L186.645 64.2932C197.814 64.4855 206.485 64.1726 209.423 63.4711C212.032 62.8492 215.435 61.1601 216.985 59.7191C218.534 58.2782 220.355 55.6354 221.031 53.8466C221.708 52.0569 222.261 48.9866 222.261 47.0234C222.261 45.0603 221.655 42.1584 220.914 40.5749C220.173 38.9914 218.744 37.0582 217.739 36.2799L215.91 34.8648L217.342 33.5514C218.129 32.8299 219.355 30.9953 220.067 29.4746C220.778 27.9549 221.351 25.2314 221.34 23.4237C221.329 21.615 220.548 18.2557 219.604 15.9587C218.377 12.9701 216.779 11.1276 213.988 9.4813L210.089 7.18033L189.571 6.86344C173.114 6.61033 168.961 6.80962 168.592 7.8749ZM232.587 7.94169C232.347 8.63427 232.258 21.5273 232.39 36.5918L232.631 63.9823L258.103 64.2474L283.576 64.5115V56.5243V48.5361H267.796H252.017V46.0717V43.6063L265.317 43.3313L278.616 43.0553V35.5813V28.1074L265.317 27.8313L252.017 27.5563V25.0909V22.6265H267.249H282.481L283.028 21.05C283.329 20.183 283.576 17.305 283.576 14.6543C283.576 12.0035 283.329 9.12555 283.028 8.25857L282.481 6.68207H257.753C238.654 6.68207 232.926 6.96908 232.587 7.94169ZM307.527 9.92078C306.864 11.7026 302.835 24.4989 298.57 38.3586C292.787 57.1571 291.118 63.6863 292.002 64.061C292.653 64.3371 296.806 64.4327 301.229 64.2723L309.273 63.9823L311.053 59.7471L312.833 55.5118H321.494H330.154L331.887 59.7471L333.619 63.9823L342.103 64.2713C346.771 64.4297 350.909 64.2055 351.301 63.773C351.693 63.3395 348.239 50.8321 343.627 35.9769C339.015 21.1217 334.954 8.4539 334.602 7.82509C334.171 7.05378 329.863 6.68207 321.347 6.68207H308.731L307.527 9.92078ZM358.143 7.31387C357.797 7.69753 357.513 16.151 357.513 26.0994C357.513 39.3741 357.877 45.5446 358.882 49.2835C359.895 53.0504 361.301 55.3992 364.28 58.2981C366.924 60.8691 370.117 62.7785 373.566 63.8478C376.456 64.7436 381.635 65.4721 385.074 65.4651C388.513 65.4591 393.499 64.8144 396.156 64.0331C398.813 63.2508 402.557 61.4621 404.479 60.057C406.399 58.6519 408.893 55.5975 410.018 53.2686L412.065 49.0344V28.1074V7.18033H402.597H393.129L392.679 26.4541L392.228 45.7269L390.099 47.6303C388.929 48.6767 386.64 49.5327 385.014 49.5327C383.389 49.5327 381.1 48.6767 379.93 47.6303L377.801 45.7269L377.35 26.4541L376.899 7.18033L367.836 6.89833C362.853 6.74386 358.491 6.93021 358.143 7.31387ZM421.016 8.00646C420.758 8.75087 420.667 12.6811 420.814 16.741L421.082 24.1213L429.854 24.4063L438.626 24.6913L438.871 44.3368L439.115 63.9823H448.583H458.05L458.295 44.3368L458.539 24.6913L467.311 24.4063L476.084 24.1213V15.6508V7.18033L448.785 6.91624L421.486 6.65318L421.016 8.00646ZM483.748 8.12005C483.748 8.91129 487.905 17.0958 492.985 26.3066L502.222 43.0553L502.678 53.5188L503.134 63.9823H512.602H522.07L522.327 54.2672L522.585 44.553L532.02 27.2135C537.21 17.6777 541.456 9.14149 541.456 8.24461V6.61431L531.779 6.89732L522.102 7.18033L517.577 15.8621C515.089 20.6364 512.85 24.5538 512.602 24.5677C512.354 24.5807 510.363 20.8985 508.176 16.3842C505.991 11.87 503.759 7.84702 503.217 7.44443C502.676 7.04183 498.074 6.706 492.99 6.69703C485.531 6.68507 483.748 6.9591 483.748 8.12005ZM551.806 7.87192C551.552 8.60337 551.453 21.5273 551.584 36.5918L551.825 63.9823H561.743H571.662L571.922 55.2627L572.183 46.5431H574.885H577.588L581.387 55.2627L585.187 63.9823L595.028 64.2673C600.441 64.4238 605.255 64.1258 605.726 63.6046C606.267 63.0067 604.885 59.188 601.975 53.2397L597.368 43.8226L600.484 40.1713C602.228 38.1274 603.862 34.9774 604.194 33.0152C604.522 31.087 604.608 27.0969 604.387 24.1472C604.099 20.3096 603.284 17.7694 601.522 15.2153C600.167 13.2522 597.358 10.6413 595.279 9.41354L591.499 7.18033L571.883 6.86144C556.159 6.60633 552.176 6.80664 551.806 7.87192ZM627.409 7.90081C627 8.60037 622.917 21.2652 618.335 36.0427C613.755 50.8212 610.343 63.2837 610.752 63.7361C611.162 64.1886 615.272 64.4297 619.887 64.2713C626.197 64.0541 628.468 63.6116 629.049 62.4875C629.474 61.6654 630.217 59.759 630.7 58.2523L631.578 55.5118H640.416H649.253L651.033 59.7471L652.813 63.9823L661.604 64.2673L670.396 64.5523L670.34 62.2743C670.31 61.0216 666.556 48.1126 661.999 33.5883L653.715 7.18033L640.934 6.90429C631.33 6.69701 627.968 6.94415 627.409 7.90081ZM678.156 8.25857C677.855 9.12555 677.615 21.5692 677.623 35.9122C677.631 50.2542 677.969 62.5672 678.375 63.2748C678.912 64.2105 681.418 64.4816 687.603 64.2713L696.094 63.9823L696.544 52.8381L696.995 41.693L705.121 52.8381L713.247 63.9823H721.351H729.456V35.5813V7.18033L720.69 6.89532L711.923 6.61033L711.445 8.88837C711.181 10.141 710.866 15.8112 710.743 21.4884L710.52 31.8105L702.912 19.9937C698.727 13.4943 694.873 7.84702 694.346 7.44443C693.82 7.04183 690.085 6.706 686.046 6.69703C680.174 6.68507 678.594 6.99797 678.156 8.25857ZM742.95 7.9068C742.702 8.61932 742.608 21.5273 742.74 36.5918L742.981 63.9823H752.448H761.916L762.367 55.1491L762.818 46.3159L769.454 55.3982L776.09 64.4806H787.209C793.886 64.4806 798.558 64.069 798.903 63.4512C799.22 62.8851 794.83 56.0131 789.147 48.1814L778.815 33.941L787.723 21.7784C792.622 15.0887 796.631 8.95513 796.631 8.14894V6.68207H785.859H775.089L768.953 15.3758L762.818 24.0684L762.367 15.6249L761.916 7.18033L752.658 6.89632C745.706 6.68306 743.287 6.93419 742.95 7.9068ZM76.4807 14.2567C76.1624 15.1725 76.3157 16.6453 76.8206 17.5302L77.7385 19.1386H86.657H95.5755V16.1491V13.1595L86.3171 12.8755L77.0587 12.5915L76.4807 14.2567ZM126.852 15.8999L127.134 19.1386H136.151H145.168L145.45 15.8999L145.733 12.6612H136.151H126.569L126.852 15.8999ZM187.998 24.6195V28.7003L193.539 28.4043C197.637 28.1851 199.34 27.653 200.072 26.3634C200.792 25.0959 200.792 24.1432 200.072 22.8756C199.34 21.5861 197.637 21.054 193.539 20.8347L187.998 20.5388V24.6195ZM572.113 26.6126V30.5987H577.491C581.698 30.5987 583.049 30.219 583.697 28.8548C584.167 27.8612 584.193 26.1452 583.757 24.8687L582.991 22.6265H577.552H572.113V26.6126ZM76.5483 25.0241C76.267 25.8343 76.1786 27.3071 76.3509 28.2987L76.6646 30.1004H86.1205H95.5755V27.1108V24.1213L86.3171 23.8373L77.0587 23.5532L76.5483 25.0241ZM127.315 24.2538C126.967 24.6375 126.683 26.2219 126.683 27.7755V30.5987H136.208H145.733L145.45 27.36L145.168 24.1213L136.557 23.8383C131.821 23.6828 127.663 23.8701 127.315 24.2538ZM318.663 32.0945L316.332 39.5674H321.514H326.697L324.297 32.0985C322.977 27.9908 321.694 24.6275 321.446 24.6255C321.198 24.6225 319.946 27.9838 318.663 32.0945ZM637.628 32.0935L635.354 39.5674H640.252C642.945 39.5674 645.149 39.2625 645.149 38.8908C645.149 38.5181 644.257 35.1548 643.168 31.4168C642.078 27.6779 640.898 24.6195 640.545 24.6195C640.19 24.6195 638.878 27.9828 637.628 32.0935ZM52.4753 35.2156C52.1282 35.5992 51.8441 37.1837 51.8441 38.7373V41.5605H61.3686H70.8939L70.6108 38.3218L70.3285 35.083L61.7175 34.8C56.9819 34.6446 52.8233 34.8319 52.4753 35.2156ZM76.551 37.115C76.2264 38.544 76.3527 40.1464 76.8305 40.6745C77.3102 41.2047 81.7158 41.5076 86.6381 41.3492L95.5755 41.0622V38.0726V35.083L86.3586 34.799L77.1416 34.516L76.551 37.115ZM127.315 35.2156C126.967 35.5992 126.683 37.1837 126.683 38.7373V41.5605H136.208H145.733L145.45 38.3218L145.168 35.083L136.557 34.8C131.821 34.6446 127.663 34.8319 127.315 35.2156ZM187.998 46.5431V50.5292H193.678C196.894 50.5292 199.829 50.01 200.441 49.3334C201.036 48.6756 201.523 47.154 201.523 45.9522C201.523 44.7504 200.881 43.4947 200.096 43.1619C199.312 42.829 196.269 42.557 193.334 42.557H187.998V46.5431ZM52.0127 49.7818L52.295 53.0205H61.3118H70.3285L70.6108 49.7818L70.8939 46.5431H61.3118H51.7296L52.0127 49.7818ZM76.5483 47.9442C76.267 48.7544 76.1786 50.2272 76.3509 51.2188L76.6646 53.0205H86.1205H95.5755V50.0309V47.0414L86.3171 46.7573L77.0587 46.4733L76.5483 47.9442ZM101.605 49.7818L101.887 53.0205H110.904H119.921L120.203 49.7818L120.486 46.5431H110.904H101.322L101.605 49.7818ZM126.852 49.7818L127.134 53.0205H136.151H145.168L145.45 49.7818L145.733 46.5431H136.151H126.569L126.852 49.7818ZM52.4753 58.1357C52.1282 58.5193 51.8441 60.1038 51.8441 61.6574V64.4806H61.3686H70.8939L70.6108 61.2418L70.3285 58.0031L61.7175 57.7201C56.9819 57.5647 52.8233 57.752 52.4753 58.1357ZM76.551 60.0351C76.2264 61.4641 76.3527 63.0665 76.8305 63.5946C77.3102 64.1248 81.7158 64.4277 86.6381 64.2693L95.5755 63.9823V60.9927V58.0031L86.3586 57.7191L77.1416 57.4361L76.551 60.0351ZM102.068 58.1357C101.72 58.5193 101.436 60.1038 101.436 61.6574V64.4806H110.961H120.486L120.203 61.2418L119.921 58.0031L111.31 57.7201C106.574 57.5647 102.416 57.752 102.068 58.1357ZM127.315 58.1357C126.967 58.5193 126.683 60.1038 126.683 61.6574V64.4806H136.208H145.733L145.45 61.2418L145.168 58.0031L136.557 57.7201C131.821 57.5647 127.663 57.752 127.315 58.1357ZM52.0127 72.7019L52.295 75.9406H61.3118H70.3285L70.6108 72.7019L70.8939 69.4632H61.3118H51.7296L52.0127 72.7019ZM76.5483 70.8643C76.267 71.6745 76.1786 73.1473 76.3509 74.1389L76.6646 75.9406H86.1205H95.5755V72.951V69.9614L86.3171 69.6774L77.0587 69.3934L76.5483 70.8643ZM101.605 72.7019L101.887 75.9406H110.904H119.921L120.203 72.7019L120.486 69.4632H110.904H101.322L101.605 72.7019ZM126.852 72.7019L127.134 75.9406H136.151H145.168L145.45 72.7019L145.733 69.4632H136.151H126.569L126.852 72.7019Z" fill="#FF3E9B"/>
</g>
</g>
<defs>
<clipPath id="clip0_1_28">
<rect width="196" height="105" fill="white"/>
</clipPath>
<clipPath id="clip1_1_28">
<rect width="195" height="28" fill="white" transform="translate(0 80)"/>
</clipPath>
<clipPath id="clip2_1_28">
<rect width="96" height="92" fill="white" transform="translate(51 -12)"/>
</clipPath>
</defs>
</svg>
