<svg width="18" height="18" viewBox="0 0 18 18" fill="none" xmlns="http://www.w3.org/2000/svg">
<path d="M13.8172 8.03271L9.96728 4.18282M1.77745 16.2224L4.34477 16.4753C4.44092 16.4848 4.48899 16.4895 4.53881 16.4911C4.58056 16.4925 4.6299 16.4918 4.67161 16.4895C4.72137 16.4866 4.7626 16.4815 4.84505 16.4713C5.00563 16.4514 5.11243 16.4329 5.2143 16.3999C5.3448 16.3577 5.46899 16.298 5.5835 16.2225C5.71257 16.1374 5.82453 16.0254 6.04845 15.8015L16.1007 5.74919C16.9415 4.90842 16.3195 3.36193 15.4787 2.52116C14.638 1.68039 13.0916 1.05852 12.2508 1.89929L2.19852 11.9516C1.9746 12.1755 1.86263 12.2875 1.77752 12.4165C1.70201 12.5311 1.64232 12.6552 1.60007 12.7857C1.56709 12.8876 1.54857 12.9944 1.52867 13.155C1.51846 13.2375 1.51336 13.2787 1.51053 13.3285C1.50816 13.3702 1.50754 13.4195 1.50887 13.4612C1.51045 13.511 1.51518 13.5591 1.52465 13.6552L1.77745 16.2224Z" stroke="#edb401" stroke-width="1.7" stroke-linecap="round" stroke-linejoin="round"/>
</svg>
