<svg width="2156" height="1001" viewBox="0 0 2156 1001" fill="none" xmlns="http://www.w3.org/2000/svg">
<path d="M692.943 471.704C713.88 441.998 836.504 271.409 918.449 242.105C1020.88 205.476 1115.59 208.005 1207 175.913C1280.13 150.241 1423.41 38.5899 1476.03 2M678.842 470.924C699.669 441.253 821.995 270.758 903.607 241.56C1005.62 205.063 1099.99 207.7 1191.03 175.726C1263.86 150.147 1406.75 38.6219 1459.13 2.1062M664.741 470.144C685.458 440.508 807.485 270.108 888.765 241.015C990.363 204.649 1084.39 207.395 1175.06 175.539C1247.59 150.054 1390.08 38.6537 1442.23 2.21228M650.64 469.365C671.246 439.763 792.976 269.457 873.922 240.47C975.105 204.236 1068.78 207.09 1159.08 175.351C1231.32 149.96 1373.42 38.6856 1425.33 2.31836M636.539 468.585C657.034 439.019 778.466 268.807 859.079 239.925C959.846 203.823 1053.18 206.786 1143.11 175.164C1215.05 149.867 1356.75 38.7178 1408.43 2.4248M622.438 467.805C642.822 438.274 763.957 268.157 844.237 239.38C944.587 203.41 1037.58 206.481 1127.14 174.977C1198.79 149.774 1340.09 38.7498 1391.53 2.53101M608.338 467.025C628.611 437.529 749.448 267.506 829.395 238.835C929.329 202.996 1021.98 206.176 1111.17 174.79C1182.52 149.68 1323.42 38.7817 1374.63 2.63708M594.237 466.245C614.4 436.785 734.939 266.856 814.553 238.29C914.071 202.583 1006.38 205.872 1095.19 174.602C1166.25 149.587 1306.76 38.8136 1357.73 2.74316M580.135 465.466C600.187 436.04 720.429 266.205 799.71 237.745C898.811 202.17 990.777 205.567 1079.22 174.415C1149.98 149.494 1290.09 38.8459 1340.83 2.84961M566.036 464.686C585.977 435.295 705.92 265.555 784.869 237.2C883.554 201.757 975.177 205.262 1063.25 174.228C1133.71 149.4 1273.43 38.8776 1323.94 2.95557M551.934 463.906C571.765 434.551 691.41 264.904 770.025 236.655C868.294 201.344 959.575 204.958 1047.28 174.041C1117.44 149.307 1256.76 38.9097 1307.04 3.06189M537.833 463.126C557.553 433.806 676.901 264.254 755.183 236.11C853.036 200.93 943.973 204.653 1031.31 173.853C1101.17 149.213 1240.1 38.9417 1290.14 3.16809M523.732 462.347C543.341 433.061 662.391 263.604 740.34 235.565C837.777 200.517 928.372 204.349 1015.33 173.666C1084.9 149.12 1223.43 38.9739 1273.24 3.27441M509.632 461.567C529.13 432.316 647.882 262.953 725.499 235.02C822.519 200.104 912.771 204.044 999.363 173.479C1068.64 149.027 1206.77 39.0056 1256.34 3.38037M495.531 460.787C514.918 431.572 633.373 262.303 710.656 234.475C807.26 199.691 897.169 203.739 983.39 173.292C1052.37 148.934 1190.1 39.0379 1239.44 3.48682M481.43 460.007C500.706 430.827 618.863 261.652 695.814 233.93C792.002 199.277 881.568 203.434 967.418 173.104C1036.1 148.84 1173.44 39.0699 1222.54 3.59302M467.329 459.227C486.495 430.082 604.354 261.002 680.971 233.385C776.743 198.864 865.967 203.13 951.446 172.917C1019.83 148.747 1156.78 39.1017 1205.64 3.6991M453.229 458.447C472.284 429.337 589.845 260.351 666.129 232.84C761.485 198.451 850.365 202.825 935.474 172.729C1003.56 148.653 1140.11 39.1336 1188.74 3.80518M439.127 457.668C458.071 428.593 575.335 259.701 651.286 232.295C746.226 198.038 834.763 202.52 919.501 172.542C987.292 148.56 1123.45 39.1659 1171.84 3.91162M425.027 456.888C443.861 427.848 560.827 259.05 636.445 231.75C730.968 197.624 819.163 202.216 903.53 172.355C971.024 148.466 1106.78 39.1975 1154.95 4.01746M410.926 456.108C429.648 427.103 546.316 258.4 621.602 231.205C715.709 197.211 803.561 201.911 887.557 172.168C954.754 148.373 1090.12 39.2297 1138.05 4.1239M396.824 455.329C415.436 426.359 531.806 257.75 606.759 230.66C700.45 196.798 787.959 201.606 871.585 171.981C938.485 148.28 1073.45 39.2618 1121.15 4.23022M382.723 454.549C401.225 425.614 517.297 257.099 591.917 230.115C685.191 196.385 772.358 201.302 855.613 171.793C922.216 148.187 1056.79 39.2939 1104.25 4.33643M368.623 453.769C387.013 424.869 502.788 256.449 577.074 229.57C669.933 195.972 756.757 200.997 839.641 171.606C905.948 148.093 1040.12 39.3258 1087.35 4.44263M354.522 452.989C372.802 424.124 488.279 255.798 562.233 229.025C654.675 195.559 741.155 200.692 823.669 171.419C889.679 148 1023.46 39.3577 1070.45 4.54871M340.421 452.209C358.59 423.38 473.769 255.148 547.389 228.48C639.415 195.146 725.554 200.388 807.696 171.232C873.41 147.907 1006.79 39.39 1053.55 4.65515M326.32 451.43C344.378 422.635 459.259 254.497 532.547 227.935C624.157 194.732 709.952 200.083 791.724 171.044C857.141 147.813 990.129 39.4219 1036.65 4.76123M312.219 450.65C330.167 421.89 444.75 253.847 517.705 227.39C608.898 194.319 694.351 199.778 775.752 170.857C840.873 147.72 973.464 39.4539 1019.75 4.86743M298.118 449.87C315.955 421.146 430.241 253.197 502.863 226.845C593.64 193.906 678.75 199.474 759.781 170.67C824.605 147.626 956.8 39.4859 1002.85 4.97363M284.017 449.09C301.743 420.401 415.731 252.546 488.02 226.3C578.381 193.493 663.148 199.169 743.807 170.483C808.335 147.533 940.135 39.518 985.954 5.07996M269.917 448.31C287.532 419.656 401.223 251.896 473.178 225.755C563.123 193.079 647.548 198.864 727.837 170.295C792.068 147.439 923.471 39.5497 969.057 5.18591M255.816 447.531C273.32 418.912 386.713 251.245 458.336 225.21C547.864 192.666 631.945 198.56 711.864 170.108C775.798 147.346 906.806 39.5819 952.157 5.29224M241.715 446.751C259.109 418.167 372.204 250.595 443.493 224.665C532.606 192.253 616.345 198.255 695.892 169.921C759.53 147.253 890.141 39.6139 935.258 5.39844M227.613 445.971C244.896 417.422 357.693 249.945 428.65 224.12C517.346 191.84 600.743 197.951 679.919 169.733C743.26 147.16 873.476 39.6461 918.359 5.50488M213.514 445.191C230.686 416.677 343.185 249.294 413.809 223.575C502.089 191.427 585.142 197.646 663.948 169.546C726.993 147.066 856.813 39.6777 901.461 5.61072M199.412 444.411C216.474 415.933 328.675 248.644 398.966 223.03C486.83 191.014 569.54 197.341 647.975 169.359C710.723 146.973 840.147 39.71 884.561 5.71716M185.312 443.632C202.262 415.188 314.166 247.993 384.124 222.485C471.571 190.6 553.939 197.036 632.003 169.171C694.455 146.879 823.483 39.7418 867.662 5.82324M171.211 442.852C188.05 414.443 299.657 247.343 369.281 221.94C456.313 190.187 538.338 196.732 616.031 168.984C678.186 146.786 806.818 39.7738 850.764 5.92944M157.11 442.072C173.839 413.698 285.147 246.692 354.439 221.395C441.054 189.774 522.737 196.427 600.059 168.797C661.918 146.693 790.154 39.8058 833.865 6.03564M143.009 441.292C159.627 412.954 270.637 246.042 339.596 220.85C425.795 189.361 507.135 196.122 584.087 168.61C645.648 146.599 773.488 39.8379 816.965 6.14197M128.909 440.512C145.416 412.209 256.129 245.391 324.755 220.305C410.538 188.947 491.534 195.817 568.115 168.422C629.381 146.506 756.825 39.8696 800.067 6.2478M114.807 439.733C131.204 411.464 241.619 244.741 309.912 219.76C395.278 188.534 475.932 195.513 552.143 168.235C613.111 146.413 740.159 39.9018 783.167 6.35425M100.707 438.953C116.993 410.719 227.11 244.09 295.07 219.215C380.02 188.121 460.331 195.208 536.171 168.048C596.843 146.319 723.495 39.9338 766.268 6.46045M86.605 438.173C102.78 409.975 212.6 243.44 280.227 218.67C364.761 187.708 444.729 194.904 520.198 167.86C580.573 146.226 706.83 39.9659 749.369 6.56677M72.5051 437.393C88.5696 409.23 198.091 242.789 265.385 218.125C349.503 187.294 429.129 194.599 504.227 167.673C564.306 146.132 690.166 39.9977 732.471 6.67273M58.4036 436.614C74.3573 408.485 183.581 242.139 250.542 217.58C334.244 186.881 413.527 194.294 488.254 167.486C548.036 146.039 673.501 40.0298 715.571 6.77905M44.303 435.834C60.146 407.741 169.072 241.489 235.7 217.035C318.986 186.468 397.926 193.989 472.282 167.298C531.768 145.946 656.837 40.0618 698.673 6.88525M30.2014 435.054C45.9336 406.996 154.562 240.839 220.857 216.49C303.726 186.055 382.324 193.685 456.31 167.111C515.499 145.853 640.171 40.0941 681.773 6.9917M16.1016 434.274C31.723 406.251 140.054 240.188 206.016 215.945C288.469 185.641 366.723 193.38 440.339 166.924C499.231 145.759 623.507 40.1257 664.875 7.09753M2 433.495C17.5107 405.507 125.544 239.538 191.173 215.4C273.21 185.229 351.121 193.076 424.366 166.737C482.962 145.666 606.842 40.158 647.975 7.20398M1353.6 999.89C1374.53 970.183 1497.16 799.594 1579.1 770.291C1681.53 733.661 1776.24 736.19 1867.65 704.099C1940.78 678.426 2102.22 554.794 2154.83 518.204M1339.5 999.109C1360.32 969.438 1482.65 798.944 1564.26 769.746C1666.28 733.248 1760.64 735.885 1851.68 703.911C1924.51 678.332 2085.55 554.825 2137.93 518.309M1325.39 998.33C1346.11 968.694 1468.14 798.293 1549.42 769.2C1651.02 732.834 1745.04 735.581 1835.71 703.724C1908.24 678.239 2068.89 554.857 2121.04 518.416M1311.29 997.55C1331.9 967.949 1453.63 797.642 1534.58 768.655C1635.76 732.421 1729.44 735.276 1819.74 703.537C1891.98 678.146 2052.22 554.89 2104.14 518.522M1297.19 996.77C1317.69 967.204 1439.12 796.992 1519.73 768.11C1620.5 732.008 1713.84 734.971 1803.76 703.349C1875.71 678.052 2035.56 554.922 2087.24 518.629M1283.09 995.99C1303.48 966.459 1424.61 796.342 1504.89 767.565C1605.24 731.595 1698.23 734.666 1787.79 703.162C1859.44 677.959 2018.89 554.953 2070.34 518.734M1268.99 995.211C1289.26 965.715 1410.1 795.691 1490.05 767.02C1589.98 731.182 1682.63 734.362 1771.82 702.975C1843.17 677.866 2002.23 554.985 2053.44 518.841M1254.89 994.431C1275.05 964.97 1395.59 795.041 1475.21 766.475C1574.72 730.769 1667.03 734.057 1755.85 702.788C1826.9 677.772 1985.57 555.018 2036.54 518.947M1240.79 993.651C1260.84 964.226 1381.08 794.391 1460.36 765.931C1559.46 730.355 1651.43 733.752 1739.88 702.6C1810.63 677.679 1968.9 555.05 2019.64 519.054M1226.69 992.871C1246.63 963.48 1366.57 793.74 1445.52 765.386C1544.21 729.942 1635.83 733.448 1723.9 702.413C1794.36 677.585 1952.24 555.081 2002.74 519.159M1212.59 992.092C1232.42 962.736 1352.06 793.09 1430.68 764.841C1528.95 729.529 1620.23 733.144 1707.93 702.226C1778.09 677.493 1935.57 555.113 1985.84 519.266M1198.49 991.311C1218.21 961.991 1337.55 792.44 1415.84 764.296C1513.69 729.116 1604.63 732.839 1691.96 702.039C1761.83 677.399 1918.91 555.146 1968.94 519.372M1184.39 990.532C1203.99 961.247 1323.04 791.789 1400.99 763.751C1498.43 728.703 1589.02 732.534 1675.99 701.851C1745.56 677.306 1902.24 555.178 1952.05 519.478M1170.29 989.752C1189.78 960.501 1308.54 791.138 1386.15 763.205C1483.17 728.289 1573.42 732.229 1660.02 701.664C1729.29 677.212 1885.58 555.209 1935.15 519.584M1156.18 988.973C1175.57 959.757 1294.03 790.488 1371.31 762.66C1467.91 727.876 1557.82 731.924 1644.04 701.476C1713.02 677.118 1868.91 555.241 1918.25 519.69M1142.08 988.192C1161.36 959.012 1279.52 789.837 1356.47 762.115C1452.66 727.463 1542.22 731.62 1628.07 701.29C1696.75 677.026 1852.25 555.274 1901.35 519.797M1127.98 987.413C1147.15 958.268 1265.01 789.187 1341.62 761.57C1437.4 727.049 1526.62 731.315 1612.1 701.102C1680.48 676.932 1835.58 555.305 1884.45 519.902M1113.88 986.633C1132.94 957.523 1250.5 788.536 1326.78 761.025C1422.14 726.636 1511.02 731.01 1596.13 700.915C1664.21 676.839 1818.92 555.337 1867.55 520.009M1099.78 985.853C1118.72 956.778 1235.99 787.886 1311.94 760.48C1406.88 726.223 1495.42 730.705 1580.15 700.727C1647.94 676.745 1802.25 555.369 1850.65 520.115M1085.68 985.073C1104.51 956.033 1221.48 787.236 1297.1 759.935C1391.62 725.81 1479.82 730.401 1564.18 700.54C1631.68 676.651 1785.59 555.401 1833.75 520.221M1071.58 984.294C1090.3 955.289 1206.97 786.585 1282.26 759.391C1376.36 725.397 1464.21 730.097 1548.21 700.353C1615.41 676.559 1768.92 555.433 1816.85 520.327M1057.48 983.514C1076.09 954.544 1192.46 785.935 1267.41 758.846C1361.1 724.984 1448.61 729.792 1532.24 700.166C1599.14 676.465 1752.26 555.465 1799.95 520.433M1043.38 982.734C1061.88 953.8 1177.95 785.285 1252.57 758.301C1345.84 724.571 1433.01 729.487 1516.27 699.978C1582.87 676.372 1735.6 555.497 1783.06 520.54M1029.28 981.954C1047.67 953.054 1163.44 784.634 1237.73 757.756C1330.59 724.158 1417.41 729.182 1500.29 699.791C1566.6 676.278 1718.93 555.53 1766.16 520.646M1015.18 981.175C1033.46 952.31 1148.93 783.984 1222.89 757.211C1315.33 723.744 1401.81 728.878 1484.32 699.604C1550.33 676.185 1702.27 555.561 1749.26 520.752M1001.07 980.394C1019.24 951.565 1134.42 783.334 1208.04 756.666C1300.07 723.331 1386.21 728.573 1468.35 699.417C1534.06 676.092 1685.6 555.593 1732.36 520.858M986.974 979.615C1005.03 950.821 1119.91 782.683 1193.2 756.121C1284.81 722.918 1370.61 728.268 1452.38 699.229C1517.8 675.998 1668.94 555.625 1715.46 520.965M972.873 978.835C990.82 950.075 1105.4 782.032 1178.36 755.575C1269.55 722.504 1355 727.963 1436.41 699.042C1501.53 675.905 1652.27 555.658 1698.56 521.071M958.772 978.056C976.609 949.331 1090.89 781.382 1163.52 755.03C1254.29 722.091 1339.4 727.659 1420.43 698.855C1485.26 675.812 1635.61 555.689 1681.66 521.177M944.671 977.275C962.397 948.586 1076.38 780.731 1148.67 754.485C1239.03 721.678 1323.8 727.355 1404.46 698.668C1468.99 675.718 1618.94 555.721 1664.76 521.283M930.571 976.495C948.186 947.841 1061.88 780.081 1133.83 753.94C1223.78 721.265 1308.2 727.05 1388.49 698.48C1452.72 675.625 1602.28 555.753 1647.86 521.39M916.469 975.716C933.974 947.097 1047.37 779.431 1118.99 753.395C1208.52 720.851 1292.6 726.745 1372.52 698.293C1436.45 675.531 1585.61 555.786 1630.96 521.496M902.369 974.936C919.762 946.352 1032.86 778.78 1104.15 752.85C1193.26 720.438 1277 726.44 1356.55 698.105C1420.18 675.438 1568.95 555.818 1614.07 521.602M888.267 974.156C905.55 945.607 1018.35 778.13 1089.3 752.306C1178 720.025 1261.4 726.136 1340.57 697.919C1403.91 675.345 1552.28 555.849 1597.17 521.708M874.167 973.376C891.339 944.862 1003.84 777.479 1074.46 751.761C1162.74 719.612 1245.8 725.831 1324.6 697.731C1387.65 675.252 1535.62 555.881 1580.27 521.814M860.066 972.597C877.127 944.118 989.329 776.829 1059.62 751.216C1147.48 719.199 1230.19 725.526 1308.63 697.544C1371.38 675.158 1518.95 555.914 1563.37 521.921M845.965 971.817C862.916 943.374 974.819 776.179 1044.78 750.671C1132.22 718.786 1214.59 725.221 1292.66 697.356C1355.11 675.064 1502.29 555.946 1546.47 522.027M831.864 971.037C848.704 942.628 960.31 775.528 1029.93 750.126C1116.97 718.373 1198.99 724.917 1276.68 697.17C1338.84 674.972 1485.63 555.977 1529.57 522.133M817.764 970.258C834.493 941.884 945.801 774.877 1015.09 749.58C1101.71 717.959 1183.39 724.612 1260.71 696.982C1322.57 674.878 1468.96 556.009 1512.67 522.239M803.662 969.477C820.281 941.139 931.291 774.228 1000.25 749.036C1086.45 717.546 1167.79 724.308 1244.74 696.795C1306.3 674.785 1452.3 556.042 1495.77 522.346M789.562 968.697C806.07 940.394 916.783 773.576 985.409 748.49C1071.19 717.132 1152.19 724.003 1228.77 696.607C1290.03 674.691 1435.63 556.073 1478.87 522.451M775.461 967.918C791.858 939.649 902.273 772.926 970.566 747.945C1055.93 716.719 1136.59 723.698 1212.8 696.42C1273.76 674.597 1418.97 556.105 1461.97 522.557M761.36 967.139C777.646 938.905 887.763 772.276 955.723 747.4C1040.67 716.306 1120.98 723.394 1196.82 696.233C1257.5 674.505 1402.3 556.137 1445.08 522.664M747.259 966.358C763.434 938.16 873.253 771.625 940.88 746.855C1025.41 715.893 1105.38 723.089 1180.85 696.046C1241.23 674.411 1385.64 556.17 1428.18 522.77M733.159 965.578C749.223 937.415 858.745 770.975 926.039 746.31C1010.16 715.48 1089.78 722.784 1164.88 695.858C1224.96 674.318 1368.97 556.201 1411.28 522.876M719.057 964.799C735.011 936.671 844.235 770.325 911.196 745.766C994.897 715.067 1074.18 722.479 1148.91 695.671C1208.69 674.224 1352.31 556.233 1394.38 522.982M704.957 964.019C720.8 935.926 829.726 769.674 896.354 745.221C979.639 714.654 1058.58 722.175 1132.94 695.484C1192.42 674.131 1335.64 556.265 1377.48 523.089M690.855 963.239C706.587 935.181 815.216 769.024 881.511 744.676C964.38 714.24 1042.98 721.87 1116.96 695.297C1176.15 674.038 1318.98 556.298 1360.58 523.195M676.755 962.459C692.377 934.436 800.707 768.373 866.669 744.131C949.122 713.827 1027.38 721.565 1100.99 695.109C1159.88 673.944 1302.32 556.329 1343.68 523.301M662.654 961.68C678.164 933.692 786.197 767.723 851.826 743.586C933.863 713.414 1011.77 721.261 1085.02 694.922C1143.62 673.851 1285.65 556.361 1326.78 523.407" stroke="white" stroke-width="3"/>
</svg>
