<svg xmlns="http://www.w3.org/2000/svg" version="1.1" viewBox="0.00 0.00 75.00 75.00">
<path fill="#b4b4b4" d="
  M 35.51 0.00
  L 39.81 0.00
  C 59.81 2.40 72.88 15.39 75.00 35.58
  L 75.00 39.55
  C 73.41 58.98 58.89 73.57 39.42 75.00
  L 35.71 75.00
  C 15.08 72.74 1.96 59.47 0.00 39.00
  L 0.00 35.71
  C 0.39 33.00 0.60 30.09 1.40 27.59
  Q 9.19 3.03 35.51 0.00
  Z
  M 53.96 59.18
  C 56.05 60.00 57.37 59.51 57.29 57.12
  Q 56.84 44.14 45.18 38.45
  A 0.38 0.38 0.0 0 1 45.11 37.82
  C 61.93 24.37 37.12 1.35 26.38 19.84
  Q 21.09 28.95 29.58 37.87
  Q 29.96 38.27 29.47 38.53
  Q 17.73 44.67 17.66 58.19
  Q 17.66 58.66 18.03 58.94
  Q 19.66 60.18 21.21 58.99
  A 1.13 1.12 -18.3 0 0 21.65 58.12
  C 22.10 34.97 53.87 36.10 53.22 58.05
  A 1.18 1.17 12.1 0 0 53.96 59.18
  Z"
/>
<ellipse fill="#b4b4b4" cx="0.00" cy="0.00" transform="translate(37.49,26.76) rotate(89.2)" rx="9.26" ry="8.87"/>
</svg>